<mxfile host="app.diagrams.net" modified="2024-05-14T17:52:40.287Z" agent="Mozilla/5.0 (Windows NT 10.0; Win64; x64) AppleWebKit/537.36 (KHTML, like Gecko) Chrome/124.0.0.0 Safari/537.36" etag="SyvTaI-TwmX5qRea6ge3" version="24.4.0" type="device">
  <diagram name="Página-1" id="oAj6XFq24k42QUpjH5TA">
    <mxGraphModel dx="1434" dy="746" grid="1" gridSize="10" guides="1" tooltips="1" connect="1" arrows="1" fold="1" page="1" pageScale="1" pageWidth="827" pageHeight="1169" math="0" shadow="0">
      <root>
        <mxCell id="0" />
        <mxCell id="1" parent="0" />
        <mxCell id="IjKcvzT3E6J-VG8Hx7l5-18" value="" style="rounded=0;whiteSpace=wrap;html=1;fillColor=none;align=left;" vertex="1" parent="1">
          <mxGeometry x="10" y="130" width="750" height="230" as="geometry" />
        </mxCell>
        <mxCell id="IjKcvzT3E6J-VG8Hx7l5-5" value="Modificar solicitudes aprobadas y añadir fotos (Realizadas)" style="rounded=0;whiteSpace=wrap;html=1;" vertex="1" parent="1">
          <mxGeometry x="260" y="215" width="120" height="60" as="geometry" />
        </mxCell>
        <mxCell id="IjKcvzT3E6J-VG8Hx7l5-6" value="crear solicitud" style="rounded=0;whiteSpace=wrap;html=1;" vertex="1" parent="1">
          <mxGeometry x="100" y="215" width="120" height="60" as="geometry" />
        </mxCell>
        <mxCell id="IjKcvzT3E6J-VG8Hx7l5-7" value="ver solicitud" style="rounded=0;whiteSpace=wrap;html=1;" vertex="1" parent="1">
          <mxGeometry x="450" y="260" width="120" height="60" as="geometry" />
        </mxCell>
        <mxCell id="IjKcvzT3E6J-VG8Hx7l5-8" value="Carga de datos" style="rounded=0;whiteSpace=wrap;html=1;" vertex="1" parent="1">
          <mxGeometry x="590" y="180" width="120" height="60" as="geometry" />
        </mxCell>
        <mxCell id="IjKcvzT3E6J-VG8Hx7l5-12" value="Superusuario" style="ellipse;whiteSpace=wrap;html=1;" vertex="1" parent="1">
          <mxGeometry x="120" y="400" width="120" height="80" as="geometry" />
        </mxCell>
        <mxCell id="IjKcvzT3E6J-VG8Hx7l5-24" style="edgeStyle=orthogonalEdgeStyle;rounded=0;orthogonalLoop=1;jettySize=auto;html=1;" edge="1" parent="1" source="IjKcvzT3E6J-VG8Hx7l5-13" target="IjKcvzT3E6J-VG8Hx7l5-5">
          <mxGeometry relative="1" as="geometry" />
        </mxCell>
        <mxCell id="IjKcvzT3E6J-VG8Hx7l5-25" style="edgeStyle=orthogonalEdgeStyle;rounded=0;orthogonalLoop=1;jettySize=auto;html=1;entryX=0;entryY=0.5;entryDx=0;entryDy=0;" edge="1" parent="1" source="IjKcvzT3E6J-VG8Hx7l5-13" target="IjKcvzT3E6J-VG8Hx7l5-7">
          <mxGeometry relative="1" as="geometry">
            <Array as="points">
              <mxPoint x="400" y="70" />
              <mxPoint x="400" y="290" />
            </Array>
          </mxGeometry>
        </mxCell>
        <mxCell id="IjKcvzT3E6J-VG8Hx7l5-13" value="Profesor" style="ellipse;whiteSpace=wrap;html=1;" vertex="1" parent="1">
          <mxGeometry x="160" y="30" width="120" height="80" as="geometry" />
        </mxCell>
        <mxCell id="IjKcvzT3E6J-VG8Hx7l5-27" style="edgeStyle=orthogonalEdgeStyle;rounded=0;orthogonalLoop=1;jettySize=auto;html=1;" edge="1" parent="1" source="IjKcvzT3E6J-VG8Hx7l5-14" target="IjKcvzT3E6J-VG8Hx7l5-8">
          <mxGeometry relative="1" as="geometry" />
        </mxCell>
        <mxCell id="IjKcvzT3E6J-VG8Hx7l5-28" style="edgeStyle=orthogonalEdgeStyle;rounded=0;orthogonalLoop=1;jettySize=auto;html=1;exitX=1;exitY=0;exitDx=0;exitDy=0;" edge="1" parent="1" source="IjKcvzT3E6J-VG8Hx7l5-14">
          <mxGeometry relative="1" as="geometry">
            <mxPoint x="570" y="60" as="sourcePoint" />
            <mxPoint x="710" y="270" as="targetPoint" />
            <Array as="points">
              <mxPoint x="552" y="60" />
              <mxPoint x="730" y="60" />
              <mxPoint x="730" y="270" />
            </Array>
          </mxGeometry>
        </mxCell>
        <mxCell id="IjKcvzT3E6J-VG8Hx7l5-29" style="edgeStyle=orthogonalEdgeStyle;rounded=0;orthogonalLoop=1;jettySize=auto;html=1;" edge="1" parent="1" source="IjKcvzT3E6J-VG8Hx7l5-14" target="IjKcvzT3E6J-VG8Hx7l5-7">
          <mxGeometry relative="1" as="geometry">
            <Array as="points">
              <mxPoint x="420" y="80" />
              <mxPoint x="420" y="270" />
            </Array>
          </mxGeometry>
        </mxCell>
        <mxCell id="IjKcvzT3E6J-VG8Hx7l5-14" value="Equipo directivo / administrativo" style="ellipse;whiteSpace=wrap;html=1;" vertex="1" parent="1">
          <mxGeometry x="450" y="40" width="120" height="80" as="geometry" />
        </mxCell>
        <mxCell id="IjKcvzT3E6J-VG8Hx7l5-15" value="Aprobar y denegar solicitudes" style="rounded=0;whiteSpace=wrap;html=1;" vertex="1" parent="1">
          <mxGeometry x="450" y="180" width="120" height="60" as="geometry" />
        </mxCell>
        <mxCell id="IjKcvzT3E6J-VG8Hx7l5-19" value="Aplicacion" style="text;html=1;align=center;verticalAlign=middle;resizable=0;points=[];autosize=1;strokeColor=none;fillColor=none;" vertex="1" parent="1">
          <mxGeometry y="130" width="80" height="30" as="geometry" />
        </mxCell>
        <mxCell id="IjKcvzT3E6J-VG8Hx7l5-20" style="edgeStyle=orthogonalEdgeStyle;rounded=0;orthogonalLoop=1;jettySize=auto;html=1;exitX=0.5;exitY=0;exitDx=0;exitDy=0;entryX=0.23;entryY=1.003;entryDx=0;entryDy=0;entryPerimeter=0;" edge="1" parent="1" source="IjKcvzT3E6J-VG8Hx7l5-12" target="IjKcvzT3E6J-VG8Hx7l5-18">
          <mxGeometry relative="1" as="geometry" />
        </mxCell>
        <mxCell id="IjKcvzT3E6J-VG8Hx7l5-21" value="Crear profesores" style="rounded=0;whiteSpace=wrap;html=1;" vertex="1" parent="1">
          <mxGeometry x="590" y="260" width="120" height="60" as="geometry" />
        </mxCell>
        <mxCell id="IjKcvzT3E6J-VG8Hx7l5-23" style="edgeStyle=orthogonalEdgeStyle;rounded=0;orthogonalLoop=1;jettySize=auto;html=1;entryX=0.608;entryY=0;entryDx=0;entryDy=0;entryPerimeter=0;" edge="1" parent="1" source="IjKcvzT3E6J-VG8Hx7l5-13" target="IjKcvzT3E6J-VG8Hx7l5-6">
          <mxGeometry relative="1" as="geometry" />
        </mxCell>
        <mxCell id="IjKcvzT3E6J-VG8Hx7l5-26" style="edgeStyle=orthogonalEdgeStyle;rounded=0;orthogonalLoop=1;jettySize=auto;html=1;entryX=0.667;entryY=0.05;entryDx=0;entryDy=0;entryPerimeter=0;" edge="1" parent="1" source="IjKcvzT3E6J-VG8Hx7l5-14" target="IjKcvzT3E6J-VG8Hx7l5-15">
          <mxGeometry relative="1" as="geometry" />
        </mxCell>
      </root>
    </mxGraphModel>
  </diagram>
</mxfile>
